<svg width="21" height="21" viewBox="0 0 21 21" fill="none" xmlns="http://www.w3.org/2000/svg">
<path d="M18.6252 8.875H6.29145L11.6539 3.52875C11.9599 3.22275 12.1318 2.80774 12.1318 2.375C12.1318 1.94226 11.9599 1.52724 11.6539 1.22125C11.348 0.915253 10.9329 0.743347 10.5002 0.743347C10.0675 0.743347 9.65244 0.915253 9.34645 1.22125L1.22145 9.34625C1.07351 9.50079 0.957539 9.68303 0.880198 9.8825C0.717668 10.2781 0.717668 10.7219 0.880198 11.1175C0.957539 11.317 1.07351 11.4992 1.22145 11.6537L9.34645 19.7787C9.49751 19.9311 9.67724 20.0519 9.87526 20.1344C10.0733 20.2169 10.2857 20.2594 10.5002 20.2594C10.7147 20.2594 10.9271 20.2169 11.1251 20.1344C11.3232 20.0519 11.5029 19.9311 11.6539 19.7787C11.8063 19.6277 11.9271 19.448 12.0096 19.2499C12.0921 19.0519 12.1346 18.8395 12.1346 18.625C12.1346 18.4105 12.0921 18.1981 12.0096 18.0001C11.9271 17.802 11.8063 17.6223 11.6539 17.4712L6.29145 12.125H18.6252C19.0562 12.125 19.4695 11.9538 19.7742 11.649C20.079 11.3443 20.2502 10.931 20.2502 10.5C20.2502 10.069 20.079 9.65569 19.7742 9.35095C19.4695 9.0462 19.0562 8.875 18.6252 8.875Z" fill="#121A22"/>
</svg>
