<?xml version="1.0" encoding="utf-8"?>
<!-- Generator: Adobe Illustrator 26.2.1, SVG Export Plug-In . SVG Version: 6.00 Build 0)  -->
<svg version="1.1" id="Layer_1" xmlns="http://www.w3.org/2000/svg" xmlns:xlink="http://www.w3.org/1999/xlink" x="0px" y="0px"
	 viewBox="0 0 500 100" style="enable-background:new 0 0 500 100;" xml:space="preserve">
<style type="text/css">
	.st0{fill:#009ADE;}
	.st1{fill:#FFFFFF;}
	.st2{fill:none;stroke:#FFFFFF;stroke-width:5.0975;stroke-miterlimit:10;}
	.st3{fill:#009ADE;stroke:#009ADE;stroke-width:3.1401;stroke-miterlimit:10;}
</style>
<g>
	<g>
		<path class="st0" d="M115.17,61.06l5.56-4.7c1.34,1.44,2.76,2.53,4.27,3.28c1.5,0.75,3.21,1.13,5.13,1.13
			c1.5,0,2.73-0.32,3.69-0.96c0.96-0.64,1.44-1.49,1.44-2.54c0-0.42-0.09-0.79-0.26-1.13c-0.18-0.34-0.48-0.67-0.91-1.01
			c-0.43-0.34-1.02-0.69-1.75-1.05c-0.74-0.37-1.66-0.78-2.78-1.22c-1.09-0.45-2.13-0.94-3.12-1.46c-0.99-0.53-1.87-1.15-2.64-1.87
			s-1.38-1.54-1.82-2.47c-0.45-0.93-0.67-2.01-0.67-3.26c0-1.73,0.36-3.27,1.08-4.63c0.72-1.36,1.69-2.52,2.9-3.48
			c1.21-0.96,2.63-1.69,4.24-2.21c1.61-0.51,3.32-0.77,5.11-0.77c2.91,0,5.37,0.45,7.39,1.34c2.01,0.9,3.74,2.11,5.18,3.64
			l-5.08,5.08c-1.28-1.18-2.53-2.08-3.76-2.69c-1.23-0.61-2.66-0.91-4.29-0.91c-1.57,0-2.77,0.36-3.62,1.08
			c-0.85,0.72-1.27,1.5-1.27,2.33c0,0.45,0.1,0.84,0.29,1.17c0.19,0.34,0.51,0.66,0.96,0.98c0.45,0.32,1.05,0.66,1.8,1.01
			c0.75,0.35,1.7,0.77,2.85,1.25c1.15,0.48,2.21,0.99,3.19,1.53c0.97,0.54,1.82,1.17,2.54,1.87c0.72,0.7,1.29,1.52,1.7,2.45
			c0.42,0.93,0.62,2,0.62,3.21c0,1.76-0.37,3.33-1.1,4.72c-0.74,1.39-1.71,2.57-2.93,3.52c-1.22,0.96-2.63,1.69-4.24,2.18
			c-1.61,0.5-3.3,0.74-5.06,0.74C123.24,67.25,118.37,65.19,115.17,61.06z"/>
		<path class="st0" d="M156.56,60.13c0.93,0.91,2.35,1.37,4.27,1.37c0.96,0,1.89-0.16,2.78-0.48c0.89-0.32,1.87-0.85,2.93-1.58
			l3.36,4.51c-1.15,0.96-2.53,1.77-4.15,2.42c-1.61,0.66-3.53,0.98-5.73,0.98c-1.85,0-3.52-0.26-4.99-0.79
			c-1.47-0.53-2.72-1.28-3.74-2.25c-1.02-0.97-1.81-2.17-2.35-3.57c-0.54-1.41-0.82-3-0.82-4.8c0-1.85,0.36-3.7,1.08-5.54
			c0.72-1.84,1.75-3.48,3.09-4.94c1.34-1.45,2.95-2.63,4.82-3.52c1.87-0.9,3.96-1.34,6.26-1.34c1.66,0,3.15,0.26,4.46,0.77
			c1.31,0.51,2.41,1.22,3.31,2.11c0.89,0.9,1.57,1.95,2.04,3.17c0.46,1.22,0.7,2.54,0.7,3.98c0,0.93-0.11,1.89-0.34,2.88
			c-0.22,0.99-0.54,1.98-0.96,2.97h-17.6C155.1,57.99,155.63,59.21,156.56,60.13z M166.77,51.9c0.16-0.54,0.24-1.1,0.24-1.68
			c0-1.06-0.33-1.95-0.98-2.69c-0.66-0.74-1.73-1.1-3.24-1.1c-1.66,0-3.13,0.5-4.39,1.51c-1.26,1.01-2.2,2.33-2.81,3.96H166.77z"/>
		<path class="st0" d="M179.34,41.06h7.48l1.15,17.12l10.21-17.12H206l-16.93,25.9h-6.62L179.34,41.06z"/>
		<path class="st0" d="M214.06,60.13c0.93,0.91,2.35,1.37,4.27,1.37c0.96,0,1.89-0.16,2.78-0.48c0.89-0.32,1.87-0.85,2.93-1.58
			l3.36,4.51c-1.15,0.96-2.53,1.77-4.15,2.42c-1.61,0.66-3.52,0.98-5.73,0.98c-1.85,0-3.52-0.26-4.99-0.79
			c-1.47-0.53-2.72-1.28-3.74-2.25c-1.02-0.97-1.81-2.17-2.35-3.57c-0.54-1.41-0.82-3-0.82-4.8c0-1.85,0.36-3.7,1.08-5.54
			c0.72-1.84,1.75-3.48,3.09-4.94c1.34-1.45,2.95-2.63,4.82-3.52c1.87-0.9,3.96-1.34,6.26-1.34c1.66,0,3.15,0.26,4.46,0.77
			c1.31,0.51,2.41,1.22,3.31,2.11c0.89,0.9,1.57,1.95,2.04,3.17c0.46,1.22,0.7,2.54,0.7,3.98c0,0.93-0.11,1.89-0.34,2.88
			c-0.22,0.99-0.54,1.98-0.96,2.97h-17.6C212.6,57.99,213.13,59.21,214.06,60.13z M224.27,51.9c0.16-0.54,0.24-1.1,0.24-1.68
			c0-1.06-0.33-1.95-0.98-2.69c-0.66-0.74-1.73-1.1-3.24-1.1c-1.66,0-3.13,0.5-4.39,1.51c-1.26,1.01-2.2,2.33-2.81,3.96H224.27z"/>
		<path class="st0" d="M239.47,41.06h7.29l-0.72,2.66c0.93-0.83,1.97-1.55,3.12-2.19c1.15-0.63,2.45-0.95,3.88-0.95
			c2.3,0,4.14,0.66,5.51,1.99c1.37,1.33,2.06,3.16,2.06,5.49c0,0.74-0.09,1.53-0.26,2.37c-0.18,0.85-0.38,1.69-0.6,2.52l-3.69,13.81
			h-7.29l3.79-14.13c0.1-0.35,0.18-0.75,0.24-1.18c0.06-0.43,0.1-0.81,0.1-1.13c0-1.02-0.31-1.81-0.94-2.36
			c-0.62-0.54-1.5-0.82-2.61-0.82c-1.44,0-2.62,0.47-3.55,1.42s-1.6,2.19-2.01,3.73l-3.88,14.47h-7.29L239.47,41.06z"/>
		<path class="st1" d="M275.63,66.48c-1.89-0.58-3.57-1.46-5.05-2.66c-1.48-1.2-2.68-2.72-3.6-4.56c-0.92-1.84-1.38-4-1.38-6.5
			c0-2.62,0.52-5.14,1.57-7.55c1.05-2.41,2.5-4.56,4.34-6.43c1.84-1.87,4.05-3.36,6.6-4.48c2.56-1.12,5.35-1.68,8.39-1.68
			c1.76,0,3.36,0.16,4.8,0.48c1.44,0.32,2.72,0.74,3.84,1.27c1.12,0.53,2.1,1.14,2.95,1.85c0.85,0.7,1.56,1.44,2.13,2.21l-5.47,4.84
			c-0.99-1.09-2.18-2.01-3.57-2.76c-1.39-0.75-3.14-1.13-5.25-1.13c-1.79,0-3.46,0.36-5.01,1.08c-1.55,0.72-2.89,1.68-4.03,2.88
			c-1.13,1.2-2.03,2.59-2.69,4.17c-0.66,1.58-0.98,3.25-0.98,5.01c0,1.31,0.22,2.47,0.67,3.48c0.45,1.01,1.06,1.85,1.85,2.52
			c0.78,0.67,1.69,1.18,2.73,1.53c1.04,0.35,2.15,0.53,3.33,0.53c1.31,0,2.45-0.13,3.43-0.38c0.97-0.25,1.83-0.56,2.57-0.91
			l1.58-5.47h-7.43l1.73-6.38h14.58l-4.75,16.74c-1.66,0.93-3.48,1.69-5.44,2.28c-1.97,0.59-4.21,0.89-6.74,0.89
			C279.42,67.34,277.52,67.06,275.63,66.48z"/>
		<path class="st1" d="M304.62,66.74c-0.91-0.34-1.69-0.82-2.35-1.44s-1.17-1.35-1.53-2.18c-0.37-0.83-0.55-1.76-0.55-2.78
			c0-1.47,0.29-2.78,0.86-3.93c0.58-1.15,1.36-2.13,2.35-2.92c0.99-0.8,2.16-1.4,3.5-1.8c1.34-0.4,2.8-0.6,4.36-0.6
			c1.41,0,2.69,0.1,3.86,0.31c1.17,0.21,2.29,0.49,3.38,0.84l0.1-0.34c0.06-0.29,0.13-0.58,0.19-0.89c0.06-0.3,0.1-0.65,0.1-1.03
			c0-0.89-0.35-1.62-1.05-2.18c-0.7-0.56-1.97-0.84-3.79-0.84c-1.25,0-2.47,0.14-3.67,0.41c-1.2,0.27-2.26,0.6-3.19,0.98l-1.15-5.75
			c1.34-0.54,2.81-0.98,4.41-1.32c1.6-0.34,3.31-0.5,5.13-0.5c3.48,0,6.09,0.69,7.82,2.06c1.73,1.38,2.59,3.33,2.59,5.85
			c0,0.67-0.06,1.33-0.17,1.97c-0.11,0.64-0.25,1.28-0.41,1.92l-3.79,14.19h-7.05l0.77-2.97c-1.02,1.12-2.17,1.97-3.45,2.57
			c-1.28,0.59-2.69,0.89-4.22,0.89C306.55,67.25,305.53,67.08,304.62,66.74z M312.97,61.85c0.69-0.27,1.32-0.65,1.89-1.13
			c0.58-0.48,1.07-1.03,1.49-1.65c0.42-0.62,0.72-1.29,0.91-1.99l0.19-0.67c-0.64-0.25-1.38-0.47-2.21-0.65
			c-0.83-0.18-1.7-0.26-2.59-0.26c-1.53,0-2.79,0.36-3.76,1.08c-0.98,0.72-1.46,1.7-1.46,2.95c0,0.8,0.3,1.46,0.91,1.97
			c0.61,0.51,1.42,0.77,2.45,0.77C311.55,62.26,312.28,62.12,312.97,61.85z"/>
		<path class="st1" d="M334.76,41.06h7.29l-0.72,2.66c0.93-0.83,1.93-1.55,3.02-2.19c1.09-0.63,2.35-0.95,3.79-0.95
			c1.76,0,3.21,0.41,4.34,1.24c1.13,0.83,1.96,1.95,2.47,3.38c1.12-1.36,2.45-2.47,3.98-3.33c1.53-0.86,3.28-1.29,5.23-1.29
			c2.3,0,4.12,0.66,5.44,1.99c1.33,1.33,1.99,3.16,1.99,5.49c0,0.74-0.09,1.53-0.26,2.37c-0.18,0.85-0.38,1.69-0.6,2.52l-3.69,13.81
			h-7.29l3.79-14.13c0.1-0.35,0.18-0.75,0.24-1.18c0.06-0.43,0.1-0.81,0.1-1.13c0-2.11-1.14-3.17-3.41-3.17
			c-1.44,0-2.61,0.47-3.5,1.42c-0.89,0.95-1.55,2.19-1.97,3.73l-3.88,14.47h-7.29l3.79-14.13c0.1-0.35,0.17-0.75,0.24-1.18
			c0.06-0.43,0.1-0.81,0.1-1.13c0-2.11-1.13-3.17-3.4-3.17c-1.44,0-2.61,0.47-3.5,1.42c-0.9,0.95-1.55,2.19-1.97,3.73l-3.88,14.47
			h-7.29L334.76,41.06z"/>
		<path class="st1" d="M380.61,41.06h7.29l-6.91,25.7h-7.29L380.61,41.06z M382.96,31.76h7.67l-1.77,6.47h-7.67L382.96,31.76z"/>
		<path class="st1" d="M394.76,41.06h7.29l-0.72,2.66c0.93-0.83,1.97-1.55,3.12-2.19c1.15-0.63,2.45-0.95,3.88-0.95
			c2.3,0,4.14,0.66,5.51,1.99c1.37,1.33,2.06,3.16,2.06,5.49c0,0.74-0.09,1.53-0.26,2.37c-0.18,0.85-0.38,1.69-0.6,2.52l-3.69,13.81
			h-7.29l3.79-14.13c0.1-0.35,0.18-0.75,0.24-1.18c0.06-0.43,0.1-0.81,0.1-1.13c0-1.02-0.31-1.81-0.94-2.36
			c-0.62-0.54-1.49-0.82-2.61-0.82c-1.44,0-2.62,0.47-3.55,1.42c-0.93,0.95-1.6,2.19-2.01,3.73l-3.88,14.47h-7.29L394.76,41.06z"/>
		<path class="st1" d="M422.28,73.6c-2.37-0.62-4.41-1.51-6.14-2.66l3.84-4.99c1.34,0.89,2.81,1.59,4.41,2.09
			c1.6,0.5,3.21,0.74,4.84,0.74c1.21,0,2.27-0.17,3.17-0.5c0.89-0.34,1.69-0.86,2.4-1.56c0.54-0.54,1-1.19,1.37-1.94
			c0.37-0.75,0.7-1.64,0.98-2.66l0.24-0.86c-1.34,1.21-2.62,2.09-3.84,2.61c-1.21,0.53-2.62,0.79-4.22,0.79
			c-1.25,0-2.44-0.19-3.57-0.58c-1.14-0.38-2.15-0.95-3.05-1.7c-0.9-0.75-1.61-1.69-2.13-2.81c-0.53-1.12-0.79-2.41-0.79-3.88
			c0-2.14,0.4-4.13,1.2-5.97c0.8-1.84,1.85-3.44,3.17-4.8c1.31-1.36,2.81-2.42,4.48-3.19c1.68-0.77,3.41-1.15,5.2-1.15
			c1.09,0,2.05,0.12,2.88,0.36c0.83,0.24,1.56,0.57,2.18,0.98c0.62,0.42,1.15,0.9,1.58,1.44c0.43,0.54,0.82,1.1,1.17,1.68l1.05-3.98
			H450l-5.51,20.67c-0.35,1.31-0.69,2.43-1.01,3.36s-0.66,1.74-1.01,2.45c-0.35,0.7-0.73,1.33-1.13,1.87
			c-0.4,0.54-0.86,1.07-1.37,1.58c-1.18,1.18-2.6,2.07-4.24,2.66c-1.65,0.59-3.65,0.89-6.02,0.89
			C427.13,74.54,424.65,74.22,422.28,73.6z M435.09,58.26c0.93-0.4,1.73-0.93,2.42-1.61c0.69-0.67,1.24-1.46,1.65-2.37
			c0.42-0.91,0.62-1.88,0.62-2.9c0-1.47-0.46-2.62-1.39-3.45c-0.93-0.83-2.16-1.25-3.69-1.25c-1.02,0-1.98,0.21-2.88,0.62
			c-0.9,0.42-1.68,0.98-2.35,1.68c-0.67,0.7-1.2,1.52-1.58,2.45c-0.38,0.93-0.58,1.89-0.58,2.88c0,1.53,0.46,2.68,1.37,3.43
			c0.91,0.75,2.09,1.13,3.53,1.13C433.2,58.85,434.16,58.66,435.09,58.26z"/>
	</g>
	<g>
		<path class="st2" d="M78.91,50h22.21c0,14.12-11.44,25.56-25.56,25.56S50,64.12,50,50s11.44-25.56,25.56-25.56h25.56"/>
		<g>
			<g>
				<path class="st3" d="M70.28,66.61l12.36-26.69H66.39V36.8h19.84v2.71l-12.19,27.1H70.28z"/>
			</g>
		</g>
	</g>
</g>
</svg>
