<svg width="21" height="21" viewBox="0 0 21 21" fill="none" xmlns="http://www.w3.org/2000/svg">
<path d="M20.12 9.8825C20.0427 9.68303 19.9267 9.50079 19.7787 9.34625L11.6537 1.22125C11.5022 1.06973 11.3224 0.949548 11.1244 0.86755C10.9264 0.785552 10.7143 0.743347 10.5 0.743347C10.0673 0.743347 9.65224 0.915253 9.34625 1.22125C9.19474 1.37276 9.07455 1.55263 8.99255 1.75059C8.91055 1.94855 8.86835 2.16072 8.86835 2.375C8.86835 2.80774 9.04026 3.22275 9.34625 3.52875L14.7087 8.875H2.375C1.94402 8.875 1.5307 9.0462 1.22595 9.35095C0.921205 9.65569 0.75 10.069 0.75 10.5C0.75 10.931 0.921205 11.3443 1.22595 11.649C1.5307 11.9538 1.94402 12.125 2.375 12.125H14.7087L9.34625 17.4712C9.19394 17.6223 9.07305 17.802 8.99055 18.0001C8.90805 18.1981 8.86558 18.4105 8.86558 18.625C8.86558 18.8395 8.90805 19.0519 8.99055 19.2499C9.07305 19.448 9.19394 19.6277 9.34625 19.7787C9.49731 19.9311 9.67704 20.0519 9.87506 20.1344C10.0731 20.2169 10.2855 20.2594 10.5 20.2594C10.7145 20.2594 10.9269 20.2169 11.1249 20.1344C11.323 20.0519 11.5027 19.9311 11.6537 19.7787L19.7787 11.6537C19.9267 11.4992 20.0427 11.317 20.12 11.1175C20.2825 10.7219 20.2825 10.2781 20.12 9.8825Z" fill="#121A22"/>
</svg>
